<svg width="96" height="15" viewBox="0 0 96 15" fill="none" xmlns="http://www.w3.org/2000/svg">
<path d="M90.1212 14.9576C88.999 14.9576 88.0331 14.7303 87.2234 14.2757C86.4185 13.8165 85.7982 13.1678 85.3626 12.3297C84.927 11.4869 84.7092 10.4902 84.7092 9.33966C84.7092 8.21751 84.927 7.23266 85.3626 6.38512C85.7982 5.53758 86.4114 4.87707 87.2021 4.40359C87.9976 3.9301 88.9303 3.69336 90.0004 3.69336C90.7201 3.69336 91.3901 3.80936 92.0104 4.04137C92.6354 4.26864 93.1799 4.61192 93.6439 5.0712C94.1126 5.53048 94.4772 6.10813 94.7376 6.80415C94.9981 7.49544 95.1283 8.3051 95.1283 9.23313V10.0641H85.9166V8.1891H92.2803C92.2803 7.75349 92.1856 7.3676 91.9962 7.03143C91.8068 6.69525 91.544 6.43247 91.2078 6.24307C90.8764 6.04895 90.4905 5.95188 90.0501 5.95188C89.5909 5.95188 89.1837 6.05842 88.8285 6.27148C88.4782 6.47982 88.2035 6.76154 88.0047 7.11665C87.8058 7.46703 87.704 7.85766 87.6993 8.28853V10.0712C87.6993 10.611 87.7987 11.0774 87.9976 11.4703C88.2012 11.8633 88.4876 12.1664 88.857 12.3794C89.2263 12.5925 89.6642 12.699 90.1709 12.699C90.5071 12.699 90.8148 12.6517 91.0942 12.557C91.3735 12.4623 91.6126 12.3203 91.8115 12.1309C92.0104 11.9415 92.1619 11.7095 92.266 11.4348L95.0643 11.6195C94.9223 12.2918 94.6311 12.879 94.1908 13.3809C93.7552 13.878 93.1917 14.2663 92.5004 14.5456C91.8139 14.8203 91.0208 14.9576 90.1212 14.9576Z" fill="#1A1A1A"/>
<path d="M77.9736 14.7441V3.83496H80.9069V5.73837H81.0205C81.2194 5.06129 81.5532 4.54992 82.0219 4.20428C82.4907 3.8539 83.0304 3.67871 83.6412 3.67871C83.7928 3.67871 83.9561 3.68818 84.1313 3.70712C84.3065 3.72606 84.4604 3.7521 84.5929 3.78524V6.4699C84.4509 6.42729 84.2544 6.38941 84.0035 6.35627C83.7525 6.32312 83.5229 6.30655 83.3145 6.30655C82.8695 6.30655 82.4717 6.40362 82.1214 6.59774C81.7757 6.78714 81.5011 7.05229 81.2975 7.3932C81.0986 7.73411 80.9992 8.1271 80.9992 8.57218V14.7441H77.9736Z" fill="#1A1A1A"/>
<path d="M71.1371 14.9576C70.0339 14.9576 69.0798 14.7232 68.2749 14.2544C67.4747 13.781 66.8568 13.1228 66.4212 12.28C65.9856 11.4325 65.7678 10.45 65.7678 9.33256C65.7678 8.20567 65.9856 7.22082 66.4212 6.37802C66.8568 5.53048 67.4747 4.87234 68.2749 4.40359C69.0798 3.9301 70.0339 3.69336 71.1371 3.69336C72.2404 3.69336 73.1921 3.9301 73.9923 4.40359C74.7972 4.87234 75.4174 5.53048 75.8531 6.37802C76.2887 7.22082 76.5065 8.20567 76.5065 9.33256C76.5065 10.45 76.2887 11.4325 75.8531 12.28C75.4174 13.1228 74.7972 13.781 73.9923 14.2544C73.1921 14.7232 72.2404 14.9576 71.1371 14.9576ZM71.1513 12.6138C71.6532 12.6138 72.0723 12.4718 72.4084 12.1877C72.7446 11.8989 72.9979 11.5059 73.1684 11.0087C73.3436 10.5115 73.4312 9.94573 73.4312 9.31126C73.4312 8.67679 73.3436 8.11097 73.1684 7.61381C72.9979 7.11665 72.7446 6.72366 72.4084 6.43484C72.0723 6.14601 71.6532 6.0016 71.1513 6.0016C70.6447 6.0016 70.2186 6.14601 69.8729 6.43484C69.532 6.72366 69.274 7.11665 69.0988 7.61381C68.9283 8.11097 68.8431 8.67679 68.8431 9.31126C68.8431 9.94573 68.9283 10.5115 69.0988 11.0087C69.274 11.5059 69.532 11.8989 69.8729 12.1877C70.2186 12.4718 70.6447 12.6138 71.1513 12.6138Z" fill="#1A1A1A"/>
<path d="M64.8545 3.83532V6.10804H58.2849V3.83532H64.8545ZM59.7764 1.22168H62.802V11.3921C62.802 11.6715 62.8446 11.8893 62.9298 12.0455C63.015 12.1971 63.1334 12.3036 63.2849 12.3651C63.4412 12.4267 63.6211 12.4575 63.8247 12.4575C63.9667 12.4575 64.1088 12.4456 64.2508 12.422C64.3929 12.3936 64.5018 12.3722 64.5775 12.358L65.0534 14.6095C64.9019 14.6568 64.6888 14.7113 64.4142 14.7728C64.1396 14.8391 63.8057 14.8794 63.4128 14.8936C62.6836 14.922 62.0444 14.8249 61.4951 14.6024C60.9506 14.3798 60.5269 14.0342 60.2238 13.5654C59.9208 13.0967 59.7717 12.5048 59.7764 11.7899V1.22168Z" fill="#1A1A1A"/>
<path d="M54.3938 4.3821C54.337 3.80919 54.0931 3.36411 53.6623 3.04688C53.2314 2.72964 52.6466 2.57102 51.908 2.57102C51.4061 2.57102 50.9823 2.64205 50.6367 2.78409C50.2911 2.9214 50.0259 3.11316 49.8412 3.35938C49.6613 3.60559 49.5714 3.88494 49.5714 4.19744C49.5619 4.45786 49.6163 4.68513 49.7347 4.87926C49.8578 5.07339 50.0259 5.24148 50.239 5.38352C50.452 5.52083 50.6982 5.64157 50.9776 5.74574C51.257 5.84517 51.5553 5.9304 51.8725 6.00142L53.1793 6.31392C53.8138 6.45597 54.3962 6.64536 54.9265 6.8821C55.4568 7.11885 55.9161 7.41004 56.3043 7.75568C56.6926 8.10133 56.9932 8.50852 57.2063 8.97727C57.4241 9.44602 57.5354 9.98343 57.5401 10.5895C57.5354 11.4796 57.3081 12.2514 56.8583 12.9048C56.4132 13.5535 55.7693 14.0578 54.9265 14.4176C54.0884 14.7727 53.0775 14.9503 51.8938 14.9503C50.7196 14.9503 49.6968 14.7704 48.8256 14.4105C47.9591 14.0507 47.2821 13.518 46.7944 12.8125C46.3114 12.1023 46.0581 11.224 46.0344 10.1776H49.0103C49.0434 10.6652 49.1831 11.0724 49.4293 11.3991C49.6803 11.7211 50.0141 11.965 50.4307 12.1307C50.8521 12.2917 51.328 12.3722 51.8583 12.3722C52.3791 12.3722 52.8313 12.2964 53.2148 12.1449C53.6031 11.9934 53.9037 11.7827 54.1168 11.5128C54.3299 11.2429 54.4364 10.9328 54.4364 10.5824C54.4364 10.2557 54.3393 9.98106 54.1452 9.75852C53.9558 9.53599 53.6765 9.34659 53.3071 9.19034C52.9426 9.03409 52.4951 8.89205 51.9648 8.7642L50.381 8.36648C49.1547 8.06818 48.1864 7.6018 47.4762 6.96733C46.766 6.33286 46.4132 5.47822 46.4179 4.40341C46.4132 3.52273 46.6476 2.75332 47.1211 2.09517C47.5993 1.43703 48.2551 0.923296 49.0884 0.553978C49.9217 0.18466 50.8687 0 51.9293 0C53.0089 0 53.9511 0.18466 54.756 0.553978C55.5657 0.923296 56.1954 1.43703 56.6452 2.09517C57.095 2.75332 57.327 3.51563 57.3412 4.3821H54.3938Z" fill="#1A1A1A"/>
<path d="M37.4914 8.43786V14.7447H34.4658V0.199219H37.4062V5.7603H37.534C37.7802 5.11636 38.1779 4.6121 38.7272 4.24751C39.2764 3.8782 39.9653 3.69354 40.7939 3.69354C41.5515 3.69354 42.212 3.85926 42.7755 4.1907C43.3437 4.5174 43.784 4.98852 44.0965 5.60405C44.4137 6.21484 44.57 6.94638 44.5653 7.79865V14.7447H41.5397V8.33842C41.5444 7.66607 41.374 7.14287 41.0283 6.76882C40.6874 6.39477 40.2092 6.20774 39.5937 6.20774C39.1817 6.20774 38.8171 6.29534 38.4999 6.47053C38.1874 6.64572 37.9412 6.9014 37.7613 7.23757C37.5861 7.56901 37.4961 7.96911 37.4914 8.43786Z" fill="#1A1A1A"/>
<path d="M28.1567 14.9576C27.0392 14.9576 26.0781 14.7208 25.2731 14.2473C24.473 13.7691 23.8574 13.1062 23.4266 12.2587C23.0004 11.4112 22.7874 10.4358 22.7874 9.33256C22.7874 8.21514 23.0028 7.23503 23.4337 6.39222C23.8693 5.54468 24.4872 4.88417 25.2874 4.41069C26.0875 3.93247 27.0392 3.69336 28.1425 3.69336C29.0942 3.69336 29.9275 3.86618 30.6425 4.21182C31.3574 4.55747 31.9232 5.04279 32.3399 5.66779C32.7566 6.29279 32.9862 7.02669 33.0288 7.8695H30.1737C30.0932 7.32499 29.8802 6.88701 29.5345 6.55557C29.1936 6.2194 28.7462 6.05131 28.1922 6.05131C27.7234 6.05131 27.3139 6.17915 26.9635 6.43484C26.6178 6.68578 26.348 7.05273 26.1538 7.53569C25.9597 8.01864 25.8626 8.6034 25.8626 9.28995C25.8626 9.98597 25.9573 10.5778 26.1467 11.0655C26.3409 11.5532 26.6131 11.9249 26.9635 12.1806C27.3139 12.4363 27.7234 12.5641 28.1922 12.5641C28.5378 12.5641 28.848 12.4931 29.1226 12.351C29.4019 12.209 29.6316 12.003 29.8115 11.7331C29.9962 11.4585 30.1169 11.1294 30.1737 10.7459H33.0288C32.9815 11.5792 32.7542 12.3132 32.347 12.9476C31.9446 13.5774 31.3882 14.0698 30.678 14.4249C29.9678 14.78 29.1273 14.9576 28.1567 14.9576Z" fill="#1A1A1A"/>
<path d="M16.7462 14.9576C15.624 14.9576 14.6581 14.7303 13.8484 14.2757C13.0435 13.8165 12.4232 13.1678 11.9876 12.3297C11.552 11.4869 11.3342 10.4902 11.3342 9.33966C11.3342 8.21751 11.552 7.23266 11.9876 6.38512C12.4232 5.53758 13.0364 4.87707 13.8271 4.40359C14.6226 3.9301 15.5553 3.69336 16.6254 3.69336C17.3451 3.69336 18.0151 3.80936 18.6354 4.04137C19.2604 4.26864 19.8049 4.61192 20.2689 5.0712C20.7376 5.53048 21.1022 6.10813 21.3626 6.80415C21.6231 7.49544 21.7533 8.3051 21.7533 9.23313V10.0641H12.5416V8.1891H18.9053C18.9053 7.75349 18.8106 7.3676 18.6212 7.03143C18.4318 6.69525 18.169 6.43247 17.8328 6.24307C17.5014 6.04895 17.1155 5.95188 16.6751 5.95188C16.2159 5.95188 15.8087 6.05842 15.4535 6.27148C15.1032 6.47982 14.8285 6.76154 14.6297 7.11665C14.4308 7.46703 14.329 7.85766 14.3243 8.28853V10.0712C14.3243 10.611 14.4237 11.0774 14.6226 11.4703C14.8262 11.8633 15.1126 12.1664 15.482 12.3794C15.8513 12.5925 16.2892 12.699 16.7959 12.699C17.1321 12.699 17.4398 12.6517 17.7192 12.557C17.9985 12.4623 18.2376 12.3203 18.4365 12.1309C18.6354 11.9415 18.7869 11.7095 18.891 11.4348L21.6893 11.6195C21.5473 12.2918 21.2561 12.879 20.8158 13.3809C20.3802 13.878 19.8167 14.2663 19.1254 14.5456C18.4389 14.8203 17.6458 14.9576 16.7462 14.9576Z" fill="#1A1A1A"/>
<path d="M0 2.73473V0.199219H11.946V2.73473H7.4929V14.7447H4.45312V2.73473H0Z" fill="#1A1A1A"/>
</svg>
